<svg xmlns="http://www.w3.org/2000/svg" viewBox="0 0 74.48 33.66"><defs><style>.cls-1{fill:#d14747;}.cls-2{fill:#e45252;}.cls-3{fill:#b23d3d;}.cls-4{fill:#35a9de;}.cls-5{fill:#1fa3db;}.cls-6{fill:#077ec3;}.cls-7{fill:#fefefe;}</style></defs><title>Asset 3</title><g id="Layer_2" data-name="Layer 2"><g id="Layer_1-2" data-name="Layer 1"><path class="cls-1" d="M74.45,14.85v5.62a2,2,0,0,0,0,.42,8.16,8.16,0,0,1-1.09,3.7,9.65,9.65,0,0,1-3.59,3.72,9.83,9.83,0,0,1-4.42,1.37c-.86.05-1.72,0-2.58,0q-26.39,0-52.76,0a9.8,9.8,0,0,1-6.26-2.1A9.61,9.61,0,0,1,.15,21.9c-.07-.33,0-.66-.1-1v-.49a.71.71,0,0,1,0-.25V15.11c0-.31,0-.34.35-.35H20.7a1.13,1.13,0,0,1,.55.06.69.69,0,0,1,.09.48v5c0,.11,0,.21,0,.31a.2.2,0,0,0,.21.21h4.09c.39,0,.42,0,.41-.4a3.83,3.83,0,0,0,0-1.07c-.1-.11-.23-.08-.34-.08H23.5c-.38,0-.43-.05-.43-.4,0-1.24,0-2.47,0-3.7,0-.33.06-.4.39-.4h3.89a.73.73,0,0,1,.25,0c.16.09.13.25.13.39,0,1,0,2,0,3a3.34,3.34,0,0,0,.41,1.63,2,2,0,0,0,1,.9,3.42,3.42,0,0,0,2.7,0,2.17,2.17,0,0,0,1.24-1.48,5.64,5.64,0,0,0,.15-.82,1.31,1.31,0,0,0,0-.44v-2.8c0-.34.06-.41.4-.41a9.49,9.49,0,0,1,1.41,0c.16.09.13.25.13.4,0,1,0,2,0,3a3.18,3.18,0,0,0,.57,1.88,1.86,1.86,0,0,0,.89.68,3.42,3.42,0,0,0,2.05.13,2.33,2.33,0,0,0,1.83-2.1c0-.09,0-.18,0-.27a3.65,3.65,0,0,0,0-.66c0-.89,0-1.78,0-2.66,0-.38,0-.43.43-.44h1.33a.51.51,0,0,1,.32.07.68.68,0,0,1,.09.48v5c0,.1,0,.2,0,.3s.06.18.17.18a6.47,6.47,0,0,0,1.46,0c.12-.11.08-.24.08-.37V15.34c0-.1,0-.2,0-.3a.25.25,0,0,1,.26-.27c.58,0,1.17,0,1.75,0a.24.24,0,0,1,.25.28c0,.1,0,.2,0,.3,0,1.69,0,3.37,0,5.06,0,.13,0,.26.08.36a5.64,5.64,0,0,0,1.3,0c.11,0,.15-.08.16-.19s0-.2,0-.3v-5a.89.89,0,0,1,.06-.46.81.81,0,0,1,.61-.07c.17.06.18.22.22.36l1.44,5.32c.1.36.1.36.48.36h1.08c.11,0,.22,0,.31-.08a.6.6,0,0,0,0-.35V15.28c0-.48,0-.52.53-.52H74A.56.56,0,0,1,74.45,14.85Z"/><path class="cls-2" d="M46.75,20.91c-.11-.09-.06-.21-.06-.31,0-1.82,0-3.64,0-5.45,0-.26-.07-.32-.31-.31q-.77,0-1.53,0c-.23,0-.28.07-.28.28,0,1.83,0,3.66,0,5.48,0,.1.06.23-.06.31a.46.46,0,0,1-.08-.34c0-1.82,0-3.64,0-5.45s0-3.61,0-5.42V9.51a.26.26,0,0,0-.28-.3H43c-.19,0-.26.09-.26.28v4.92c0,.15,0,.31-.1.44-.58,0-1.16,0-1.75,0-.19,0-.24.07-.24.26v3.13a.53.53,0,0,1,0,.35c-.13-.12-.1-.27-.1-.42,0-1.15,0-2.31,0-3.47,0-.18-.07-.25-.24-.25H38.41c-.19,0-.26.08-.26.27v.91a.62.62,0,0,1-.07.38c-.19,0-.14-.13-.15-.21a4.14,4.14,0,0,1,0-.61c0-.17-.08-.24-.25-.25a1.43,1.43,0,0,1-.65,0,.44.44,0,0,1-.1-.36c0-.94,0-1.87,0-2.81a1,1,0,0,1,1.26-1,.89.89,0,0,1,.73.71A4.75,4.75,0,0,1,39,12.63c0,.41,0,.41.42.41s.63,0,1,0c.15,0,.25,0,.25-.22a6.72,6.72,0,0,0-.14-1.9A2.28,2.28,0,0,0,38.16,9.1a3.69,3.69,0,0,0-.94.05,2.22,2.22,0,0,0-1.89,1.73,4.54,4.54,0,0,0-.14,1.1v2.47c0,.14,0,.28-.08.4-.51,0-1,0-1.53,0-.22,0-.26.08-.26.28,0,1,0,2,0,3.05,0,.1,0,.21,0,.3-.13-.13-.09-.3-.09-.45,0-2.12,0-4.24,0-6.36A2.43,2.43,0,0,0,30.8,9.1a3.82,3.82,0,0,0-1.21.1,2.23,2.23,0,0,0-1.68,1.58A4.2,4.2,0,0,0,27.73,12c0,.84,0,1.67,0,2.5,0,.14,0,.28-.08.4H23.4c-.2,0-.26.06-.25.25V19c0,.18.05.23.24.23.82,0,1.65,0,2.47,0,.1,0,.21-.05.28.06a.46.46,0,0,1-.34.08c-.78,0-1.56,0-2.33,0-.4,0-.47-.07-.47-.47,0-1.25,0-2.5,0-3.75.08-1.81,0-3.61,0-5.41V9.45a.22.22,0,0,0-.23-.23H21.54c-.12,0-.18.06-.19.19s0,.2,0,.3v4.7a.58.58,0,0,1-.09.44H.45c-.44,0-.4,0-.4.38v4.86c0,.11,0,.22,0,.33-.06-.07,0-.16,0-.24V13.52c0-.08,0-.17,0-.24a.19.19,0,0,1,0,.16s0-.14,0-.24A13.42,13.42,0,0,1,.73,9.38,15.5,15.5,0,0,1,3.56,4,10.82,10.82,0,0,1,8.43.44,4.69,4.69,0,0,1,10.16.09H10.1a3.69,3.69,0,0,0-.58,0,.3.3,0,0,1-.3-.08.42.42,0,0,1,.27,0H64a6,6,0,0,1,1.27,0c-.14.15-.32,0-.47.06s-.2,0-.27,0a8,8,0,0,1,3.21,1.1,12.24,12.24,0,0,1,4.53,4.67,16.92,16.92,0,0,1,2.15,6.56,9.36,9.36,0,0,1,.05,1.3,4.61,4.61,0,0,0,0,.64v.5H53c-.39,0-.39,0-.39.38V20.6c0,.1,0,.22-.06.31a.76.76,0,0,1-.08-.51V9.78c0-.57,0-.57-.59-.57H51.3c-.21,0-.3.1-.29.31v4.8a.8.8,0,0,1-.07.46.29.29,0,0,1-.36,0,.93.93,0,0,1-.22-.52c-.42-1.56-.84-3.12-1.27-4.67-.11-.42-.12-.42-.55-.42H47.12c-.21,0-.31.08-.29.29V20.42A.76.76,0,0,1,46.75,20.91Z"/><path class="cls-3" d="M.05,20.91c.09.46.16.92.28,1.37a9.43,9.43,0,0,0,2.07,4A9.69,9.69,0,0,0,8,29.46a9.86,9.86,0,0,0,1.87.17q27.39,0,54.77,0a9.8,9.8,0,0,0,9.64-7.82,3.82,3.82,0,0,0,.13-.95s0,0,0,0a32.73,32.73,0,0,1-.1,4.43,9.52,9.52,0,0,1-4.89,7.13,9.33,9.33,0,0,1-4.79,1.24H9.78a9.73,9.73,0,0,1-9.61-8,10.45,10.45,0,0,1-.13-2C.05,22.71.05,21.81.05,20.91Z"/><path class="cls-1" d="M74.41,13.68a17.06,17.06,0,0,0-1.07-5.29,14.82,14.82,0,0,0-2.09-3.9A10.64,10.64,0,0,0,64.93.2a4.65,4.65,0,0,1-.59-.15h.89A9.4,9.4,0,0,1,71.3,2.59a9.54,9.54,0,0,1,3.16,7.26c0,1.27,0,2.55,0,3.83C74.43,13.71,74.42,13.71,74.41,13.68Z"/><path class="cls-1" d="M10.17.11a7.71,7.71,0,0,0-2.49.7A10.45,10.45,0,0,0,4,3.56a15.42,15.42,0,0,0-3.23,6,22.93,22.93,0,0,0-.65,3.28c0,.12,0,.24,0,.36s0,0,0,0A36.34,36.34,0,0,1,.11,8.63a9.54,9.54,0,0,1,6.27-8A8.09,8.09,0,0,1,9.22.05l.95,0,0,0S10.18.11,10.17.11Z"/><path class="cls-4" d="M74.41,13.68h0v.67A1.69,1.69,0,0,1,74.41,13.68Z"/><path class="cls-5" d="M.05,13.18H.1v.33h0l0-.23Z"/><path class="cls-6" d="M74.45,20.86h0c0-.13,0-.27,0-.39Z"/><path class="cls-7" d="M50.92,14.79c0-1.71,0-3.43,0-5.14,0-.59-.08-.5.52-.51h.78c.36,0,.36,0,.36.35,0,1.68,0,3.35,0,5,0,2.13,0,4.26,0,6.39-.57,0-1.13,0-1.7,0-.17,0-.21-.07-.25-.22q-.77-2.86-1.55-5.73a1.12,1.12,0,0,0,0-.13.36.36,0,0,1-.13-.23c-.15-.6-.35-1.19-.45-1.77,0-.06-.07,0,0,0h0a1.44,1.44,0,0,1,.05.46v1.23a.46.46,0,0,1-.08.34c0,1.92,0,3.84,0,5.76,0,.24,0,.32-.3.31-.45,0-.91,0-1.36,0,0-.07,0-.13,0-.2q0-5.62,0-11.26c0-.26.08-.32.33-.32.57,0,1.15,0,1.72,0,.22,0,.3.09.35.29.45,1.69.91,3.37,1.36,5.06,0,.11.07.21.1.32a3.41,3.41,0,0,1,.32,1,7.53,7.53,0,0,1,0-.95Z"/><path class="cls-7" d="M27.65,14.85c0-1,0-2,0-2.95a3.61,3.61,0,0,1,.21-1.25A2.41,2.41,0,0,1,30.16,9a3.61,3.61,0,0,1,1.35.13,2.42,2.42,0,0,1,1.76,2.37c0,1.1,0,2.21,0,3.31v3.64a2.49,2.49,0,0,1-1.44,2.32,3.43,3.43,0,0,1-2.12.19A2.31,2.31,0,0,1,27.8,19.2a3.88,3.88,0,0,1-.14-1.07C27.66,17,27.66,15.94,27.65,14.85Z"/><path class="cls-7" d="M38.06,16c0-.45,0-.89,0-1.33,0-.26,0-.36.32-.35.66,0,1.32,0,2,0,.26,0,.33.07.31.33-.07,1.3,0,2.6,0,3.91a3.22,3.22,0,0,1-.25,1.05A2.42,2.42,0,0,1,38,21.05,3.9,3.9,0,0,1,37.2,21a2.4,2.4,0,0,1-2-2.24c-.08-.75,0-1.5,0-2.24,0-.56,0-1.12,0-1.67,0-1,0-2,0-2.94a3.64,3.64,0,0,1,.22-1.31,2.26,2.26,0,0,1,1.9-1.54,4.1,4.1,0,0,1,1.44,0,2.42,2.42,0,0,1,1.94,2.27c.05.52,0,1,0,1.55,0,.18-.06.22-.22.22-.44,0-.88,0-1.31,0-.21,0-.24-.07-.24-.26a7.08,7.08,0,0,0,0-1.38A.93.93,0,0,0,37,11.6c0,.26,0,.52,0,.78v2.47a.56.56,0,0,1,.08.4c0,.95,0,1.9,0,2.85,0,.11,0,.22,0,.33a.84.84,0,0,0,1.16.77.67.67,0,0,0,.49-.52,2.22,2.22,0,0,0,.07-.57v-1.5c0-.44,0-.43-.43-.46C38.26,16.15,38.11,16.2,38.06,16Z"/><path class="cls-7" d="M21.25,14.85c0-1.79,0-3.59,0-5.39,0-.27.08-.34.35-.33.43,0,.87,0,1.3,0,.19,0,.24.06.24.24,0,1.75,0,3.5,0,5.25,0,1.45,0,2.91,0,4.36,0,.21.07.26.27.26.93,0,1.86,0,2.78,0,0,.49,0,1,0,1.47,0,.17-.06.19-.21.19H21.47c-.22,0-.22-.1-.22-.27v-5.8Z"/><path class="cls-7" d="M42.67,14.85c0-1.79,0-3.59,0-5.39,0-.28.08-.34.34-.33.43,0,.86,0,1.28,0,.22,0,.27.07.27.27,0,1.71,0,3.43,0,5.14,0,2.06,0,4.13,0,6.19a1,1,0,0,1,0,.17c-.53,0-1,0-1.58,0-.22,0-.26-.07-.26-.27,0-1.83,0-3.66,0-5.49C42.68,15.06,42.68,15,42.67,14.85Z"/><path class="cls-2" d="M48.41,14.85V12.68h.05L49,14.84Z"/><path class="cls-1" d="M38.06,16a2.42,2.42,0,0,0,.66,0c.12,0,.18,0,.18.17,0,.73,0,1.46,0,2.19a.92.92,0,0,1-1.25.89.84.84,0,0,1-.63-.92c0-.85,0-1.69,0-2.53,0-.33,0-.67,0-1,.23,0,.47,0,.7,0s.32.05.31.31A2.15,2.15,0,0,0,38.06,16Z"/><path class="cls-1" d="M50.87,15.9c-.08-.37-.23-.73-.28-1.1h.33a9.07,9.07,0,0,1,0,1C50.94,15.88,50.92,15.9,50.87,15.9Z"/><path class="cls-1" d="M50.87,15.9a6.88,6.88,0,0,0,.05-1.11A10,10,0,0,1,51,16,.14.14,0,0,1,50.87,15.9Z"/><path class="cls-1" d="M31.43,14.85c0,1.16,0,2.32,0,3.47a.95.95,0,1,1-1.89.08c0-1.18,0-2.37,0-3.55A4.63,4.63,0,0,1,31.43,14.85Z"/><path class="cls-2" d="M31.43,14.85H29.54c0-1.06,0-2.11,0-3.17a.91.91,0,0,1,1.19-.94.78.78,0,0,1,.64.62,1.82,1.82,0,0,1,.06.46C31.44,12.83,31.43,13.84,31.43,14.85Z"/></g></g></svg>