<svg xmlns="http://www.w3.org/2000/svg" viewBox="0 0 293.12 135.18"><defs><style>.cls-1{fill:#3f3f3f;}.cls-2{fill:#e45252;}.cls-3{fill:#d14747;}.cls-4{fill:#b23d3d;}.cls-5{fill:#35a9de;}.cls-6{fill:#1fa3db;}.cls-7{fill:#077ec3;}.cls-8{fill:#2ba6dd;}.cls-9{font-size:20px;fill:#fff;font-family:Poppins-Medium, Poppins;font-weight:500;}</style></defs><title>login</title><g id="Layer_1" data-name="Layer 1"><path class="cls-1" d="M-134.24-80v.87h-1.55v4.52h-1v-4.52h-1.54V-80Zm.57,5.39V-80h2.45c1.1,0,1.65.48,1.65,1.45,0,.65-.43,1.19-1.29,1.61l1.71,2.33h-1.26L-132-77v-.46c1-.16,1.43-.53,1.43-1.11,0-.4-.22-.6-.67-.6h-1.36v4.51Zm5.55,0h-1l2.29-5.39h1.08l2.33,5.39h-1.07l-.61-1.47h-1.8l.35-.86h1.08l-.84-2ZM-117.65-80-120-74.63h-1.07L-123.35-80h1.19l1.67,4.13,1.66-4.13Zm4.25,0v.86h-2.69v1.36h2.57v.89h-2.59v1.42h2.77v.86h-3.75V-80Zm2,0v4.53h2.14v.86h-3.14V-80Zm6.78,0v.86h-2.7v1.36h2.57v.89h-2.58v1.42h2.76v.86h-3.74V-80Zm1,5.39V-80h2.45c1.1,0,1.66.48,1.66,1.45,0,.65-.43,1.19-1.29,1.61l1.71,2.33h-1.26L-102-77v-.46c1-.16,1.43-.53,1.43-1.11,0-.4-.22-.6-.67-.6h-1.37v4.51Z" transform="translate(138.33 80.02)"/><circle class="cls-2" cx="41.37" cy="4.59" r="0.8"/><path class="cls-3" d="M154.76,35v5.62a2,2,0,0,0,0,.42,8,8,0,0,1-1.1,3.7,9.62,9.62,0,0,1-3.58,3.72,9.83,9.83,0,0,1-4.42,1.37c-.87,0-1.73,0-2.59,0H90.3A9.83,9.83,0,0,1,84,47.76,9.64,9.64,0,0,1,80.46,42c-.07-.33,0-.66-.1-1v-.49a.53.53,0,0,1,0-.25V35.25c0-.31,0-.34.34-.35H101a1.16,1.16,0,0,1,.55.06.69.69,0,0,1,.09.48v5.31a.21.21,0,0,0,.21.21H106c.39,0,.42,0,.41-.4a3.49,3.49,0,0,0,0-1.07c-.09-.11-.22-.08-.34-.08H103.8c-.37,0-.43,0-.43-.41V35.3c0-.33.06-.4.39-.4h3.9a.67.67,0,0,1,.24,0c.17.09.13.25.13.39,0,1,0,2,0,3a3.24,3.24,0,0,0,.41,1.63,2,2,0,0,0,1,.9,3.45,3.45,0,0,0,2.71,0,2.16,2.16,0,0,0,1.23-1.48,5.93,5.93,0,0,0,.16-.82,1.63,1.63,0,0,0,0-.44c0-.93,0-1.86,0-2.8,0-.34,0-.41.4-.41a9.49,9.49,0,0,1,1.41,0c.16.09.12.25.12.4,0,1,0,2,0,3a3.17,3.17,0,0,0,.56,1.88,1.84,1.84,0,0,0,.9.68A3.42,3.42,0,0,0,119,41a2.34,2.34,0,0,0,1.83-2.1,2.51,2.51,0,0,1,0-.27,2.92,2.92,0,0,0,0-.66V35.34c0-.38.06-.43.44-.44h1.33A.52.52,0,0,1,123,35a.73.73,0,0,1,.08.48c0,1.67,0,3.34,0,5,0,.1,0,.2,0,.3s.07.18.18.18a6.49,6.49,0,0,0,1.46,0c.11-.11.08-.24.08-.37V35.18a.25.25,0,0,1,.26-.27c.59,0,1.17,0,1.75,0a.26.26,0,0,1,.26.28v5.36c0,.12,0,.26.08.36a5.68,5.68,0,0,0,1.3,0c.12,0,.16-.08.17-.19s0-.2,0-.3v-5a.89.89,0,0,1,.06-.46.77.77,0,0,1,.61-.07c.17.06.18.22.21.36.49,1.77,1,3.55,1.45,5.32.09.36.1.36.47.36h1.08c.11,0,.23,0,.31-.08a.61.61,0,0,0,.05-.35V35.42c0-.48,0-.52.52-.52h21A.57.57,0,0,1,154.76,35Z" transform="translate(138.33 80.02)"/><path class="cls-2" d="M127.05,41.05c-.11-.09,0-.21,0-.31,0-1.82,0-3.64,0-5.45,0-.26-.08-.32-.32-.31-.5,0-1,0-1.53,0-.22,0-.27.07-.27.28,0,1.83,0,3.66,0,5.48,0,.1.06.23-.06.31a.46.46,0,0,1-.09-.34c0-1.82,0-3.64,0-5.45s0-3.61,0-5.42c0-.06,0-.13,0-.19a.25.25,0,0,0-.27-.3h-1.17c-.19,0-.27.09-.26.28v.8c0,1.37,0,2.74,0,4.11,0,.16,0,.32-.09.45h-1.75c-.2,0-.25.07-.25.26,0,1,0,2.09,0,3.13a.6.6,0,0,1,0,.35c-.13-.12-.1-.27-.1-.42,0-1.15,0-2.31,0-3.47,0-.18-.07-.25-.24-.25h-1.92c-.19,0-.27.08-.27.27s0,.61,0,.91a.62.62,0,0,1-.06.38c-.19,0-.14-.13-.16-.21s0-.41,0-.61-.07-.24-.25-.25a1.44,1.44,0,0,1-.65,0,.43.43,0,0,1-.09-.36c0-.94,0-1.87,0-2.81a1,1,0,0,1,1.25-1,.91.91,0,0,1,.74.71,5.79,5.79,0,0,1,.06,1.25c0,.41,0,.41.42.41h.94c.15,0,.25,0,.26-.22a6.72,6.72,0,0,0-.15-1.9,2.28,2.28,0,0,0-2.29-1.82,3.71,3.71,0,0,0-.94.05A2.21,2.21,0,0,0,115.64,31a4.1,4.1,0,0,0-.14,1.1v2.47a.56.56,0,0,1-.08.4c-.51,0-1,0-1.53,0-.22,0-.26.08-.26.28,0,1,0,2,0,3.05,0,.1,0,.21,0,.3-.13-.13-.09-.3-.09-.45q0-3.18,0-6.36a2.41,2.41,0,0,0-2.38-2.56,3.79,3.79,0,0,0-1.21.1,2.23,2.23,0,0,0-1.68,1.58,3.86,3.86,0,0,0-.18,1.17v2.5c0,.14,0,.28-.08.4H103.7c-.19,0-.25.06-.25.25q0,1.94,0,3.87c0,.18.06.23.24.23h2.48c.09,0,.2,0,.28.06a.46.46,0,0,1-.34.08h-2.34c-.4,0-.46-.07-.46-.47,0-1.25,0-2.5,0-3.75.07-1.81,0-3.61,0-5.41a2,2,0,0,0,0-.25.21.21,0,0,0-.22-.23h-1.28a.18.18,0,0,0-.2.19v5c0,.15,0,.31-.1.44H80.75c-.43,0-.39-.05-.39.38v4.86c0,.11,0,.22,0,.33-.06-.07,0-.16,0-.24V33.66a.39.39,0,0,1,0-.24.16.16,0,0,1,0,.16,1.85,1.85,0,0,0,0-.24A13.44,13.44,0,0,1,81,29.52a15.34,15.34,0,0,1,2.83-5.43,10.86,10.86,0,0,1,4.87-3.52,4.89,4.89,0,0,1,1.73-.34.64.64,0,0,1,.14,0,1.46,1.46,0,0,0-.21,0,3.64,3.64,0,0,0-.57,0,.3.3,0,0,1-.3-.08.42.42,0,0,1,.27,0h54.47a6,6,0,0,1,1.27,0c-.14.15-.32,0-.48.06s-.2,0-.26,0a8,8,0,0,1,3.2,1.1A12.19,12.19,0,0,1,152.54,26a16.91,16.91,0,0,1,2.14,6.56,9.36,9.36,0,0,1,.06,1.3,3.45,3.45,0,0,0,0,.64V35H133.34c-.39,0-.39,0-.39.38,0,1.79,0,3.58,0,5.37,0,.1.06.22-.06.31a.76.76,0,0,1-.08-.51V29.92c0-.57,0-.57-.58-.57h-.61c-.22,0-.31.1-.3.31a2.43,2.43,0,0,1,0,.27v4.53a.89.89,0,0,1-.06.46.29.29,0,0,1-.36,0,.94.94,0,0,1-.23-.52c-.42-1.56-.83-3.12-1.26-4.67-.12-.42-.12-.42-.55-.42h-1.42c-.21,0-.31.08-.3.29a2.61,2.61,0,0,1,0,.28V40.56C127.13,40.73,127.17,40.9,127.05,41.05Z" transform="translate(138.33 80.02)"/><path class="cls-4" d="M80.36,41.05c.09.46.16.92.27,1.37a9.4,9.4,0,0,0,2.08,4,9.79,9.79,0,0,0,7.46,3.39h54.76a9.6,9.6,0,0,0,6.25-2.21,9.71,9.71,0,0,0,3.4-5.61,4.35,4.35,0,0,0,.13-1s0,0,0,0a32.84,32.84,0,0,1-.1,4.44,9.53,9.53,0,0,1-4.9,7.13A9.3,9.3,0,0,1,145,53.8H90.08a9.71,9.71,0,0,1-9.6-8,10.45,10.45,0,0,1-.14-2C80.35,42.85,80.35,42,80.36,41.05Z" transform="translate(138.33 80.02)"/><path class="cls-3" d="M154.71,33.82a16.78,16.78,0,0,0-1.07-5.29,14.79,14.79,0,0,0-2.08-3.9,10.7,10.7,0,0,0-6.32-4.29,4.39,4.39,0,0,1-.6-.15h.9a9.35,9.35,0,0,1,6.06,2.54A9.54,9.54,0,0,1,154.76,30c0,1.27,0,2.55,0,3.83C154.74,33.85,154.72,33.85,154.71,33.82Z" transform="translate(138.33 80.02)"/><path class="cls-3" d="M90.48,20.25A7.77,7.77,0,0,0,88,21a10.63,10.63,0,0,0-3.69,2.75,15.4,15.4,0,0,0-3.22,6A21.63,21.63,0,0,0,80.42,33a2.17,2.17,0,0,0,0,.36s0,0-.06,0a36.34,36.34,0,0,1,.06-4.55,9.53,9.53,0,0,1,6.28-8,8.09,8.09,0,0,1,2.84-.58l.94,0s0,0,0,0Z" transform="translate(138.33 80.02)"/><path class="cls-5" d="M154.71,33.82h0v.67A1.9,1.9,0,0,1,154.71,33.82Z" transform="translate(138.33 80.02)"/><path class="cls-6" d="M80.35,33.32h.06v.33h0l0-.23Z" transform="translate(138.33 80.02)"/><path class="cls-7" d="M154.76,41h0c0-.13,0-.27,0-.39Z" transform="translate(138.33 80.02)"/><path class="cls-2" d="M128.72,35V32.82h.05l.57,2.17Z" transform="translate(138.33 80.02)"/><path class="cls-3" d="M131.18,36c-.08-.37-.23-.73-.28-1.1h.33a9.07,9.07,0,0,1,0,1C131.25,36,131.23,36,131.18,36Z" transform="translate(138.33 80.02)"/><path class="cls-8" d="M90.48,20.25a.06.06,0,0,0,0,0h.26A.34.34,0,0,1,90.48,20.25Z" transform="translate(138.33 80.02)"/><path class="cls-3" d="M131.18,36a8.25,8.25,0,0,0,0-1.11,10,10,0,0,1,.05,1.24A.14.14,0,0,1,131.18,36Z" transform="translate(138.33 80.02)"/><path class="cls-3" d="M111.74,35c0,1.16,0,2.32,0,3.47a.9.9,0,0,1-.58,1,.92.92,0,0,1-1.3-.9c0-1.18,0-2.37,0-3.55A4.63,4.63,0,0,1,111.74,35Z" transform="translate(138.33 80.02)"/><path class="cls-2" d="M111.74,35h-1.89c0-1.06,0-2.11,0-3.17a.9.9,0,0,1,1.18-.94.8.8,0,0,1,.65.62,1.82,1.82,0,0,1,.06.46Z" transform="translate(138.33 80.02)"/><rect class="cls-2" x="236.42" y="105.9" width="36.03" height="9.03"/><rect class="cls-3" x="232.59" y="114.92" width="41.38" height="7.39"/></g><g id="Layer_2" data-name="Layer 2"><text class="cls-9" transform="translate(226.16 123.54)">LOGIN</text></g></svg>